<svg xmlns="http://www.w3.org/2000/svg" xmlns:xlink="http://www.w3.org/1999/xlink" width="500" zoomAndPan="magnify" viewBox="0 0 375 374.999991" height="500" preserveAspectRatio="xMidYMid meet" version="1.0"><defs><g/><clipPath id="b748234934"><rect x="0" width="183" y="0" height="272"/></clipPath><clipPath id="0eb7126822"><rect x="0" width="249" y="0" height="57"/></clipPath></defs><rect x="-37.5" width="450" fill="#ffffff" y="-37.499999" height="449.999989" fill-opacity="1"/><rect x="-37.5" width="450" fill="#f6f3ee" y="-37.499999" height="449.999989" fill-opacity="1"/><g transform="matrix(1, 0, 0, 1, 137, 50)"><g clip-path="url(#b748234934)"><g fill="#000000" fill-opacity="1"><g transform="translate(1.580559, 188.017337)"><g><path d="M 77.609375 0 L 9.171875 0 C 11.972656 -2.789062 13.503906 -6.457031 13.765625 -11 C 14.023438 -15.550781 14.15625 -20.273438 14.15625 -25.171875 L 14.15625 -158.359375 C 14.15625 -163.429688 14.023438 -168.195312 13.765625 -172.65625 C 13.503906 -177.113281 11.972656 -180.738281 9.171875 -183.53125 L 77.609375 -183.53125 C 94.734375 -183.53125 110.332031 -180.035156 124.40625 -173.046875 C 138.476562 -166.054688 149.707031 -155.742188 158.09375 -142.109375 C 166.488281 -128.472656 170.6875 -111.691406 170.6875 -91.765625 C 170.6875 -71.835938 166.488281 -55.054688 158.09375 -41.421875 C 149.707031 -27.785156 138.476562 -17.472656 124.40625 -10.484375 C 110.332031 -3.492188 94.734375 0 77.609375 0 Z M 25.4375 -2.890625 L 77.34375 -2.890625 C 87.65625 -2.890625 97.660156 -4.851562 107.359375 -8.78125 C 117.066406 -12.71875 125.765625 -18.488281 133.453125 -26.09375 C 141.140625 -33.695312 147.210938 -43.003906 151.671875 -54.015625 C 156.128906 -65.023438 158.359375 -77.609375 158.359375 -91.765625 C 158.359375 -105.921875 156.128906 -118.503906 151.671875 -129.515625 C 147.210938 -140.523438 141.140625 -149.832031 133.453125 -157.4375 C 125.765625 -165.039062 117.066406 -170.804688 107.359375 -174.734375 C 97.660156 -178.671875 87.65625 -180.640625 77.34375 -180.640625 L 25.4375 -180.640625 Z M 25.4375 -2.890625 "/></g></g></g></g></g><g transform="matrix(1, 0, 0, 1, 51, 276)"><g clip-path="url(#0eb7126822)"><g fill="#000000" fill-opacity="1"><g transform="translate(2.312243, 38.398645)"><g><path d="M 31.890625 -12.671875 C 32.035156 -12.671875 32.109375 -12.5625 32.109375 -12.34375 C 32.109375 -12.132812 32.035156 -11.992188 31.890625 -11.921875 C 31.515625 -11.765625 31.132812 -11.628906 30.75 -11.515625 C 30.363281 -11.410156 30.003906 -11.269531 29.671875 -11.09375 C 28.921875 -10.6875 28.546875 -10.023438 28.546875 -9.109375 L 28.546875 -2.46875 C 28.546875 -2.175781 27.828125 -1.773438 26.390625 -1.265625 C 24.953125 -0.765625 23.785156 -0.394531 22.890625 -0.15625 C 18.679688 0.875 14.921875 0.765625 11.609375 -0.484375 C 7.804688 -1.941406 5.113281 -4.550781 3.53125 -8.3125 C 2.738281 -10.195312 2.34375 -12.066406 2.34375 -13.921875 C 2.34375 -15.785156 2.53125 -17.351562 2.90625 -18.625 C 4.019531 -22.488281 6.363281 -25.460938 9.9375 -27.546875 C 12.257812 -28.910156 14.707031 -29.59375 17.28125 -29.59375 C 19.851562 -29.59375 22.582031 -29.078125 25.46875 -28.046875 C 26 -27.847656 26.296875 -27.75 26.359375 -27.75 L 26.609375 -27.75 L 27.421875 -27.953125 L 27.9375 -27.953125 C 28.09375 -27.953125 28.171875 -27.878906 28.171875 -27.734375 L 28.171875 -20.9375 C 28.171875 -20.675781 28.019531 -20.546875 27.71875 -20.546875 L 27.640625 -20.546875 C 27.378906 -20.566406 27.203125 -20.910156 27.109375 -21.578125 C 27.078125 -21.710938 27.054688 -21.816406 27.046875 -21.890625 C 25.679688 -26.148438 22.804688 -28.28125 18.421875 -28.28125 C 14.898438 -28.28125 12.09375 -26.953125 10 -24.296875 C 7.914062 -21.640625 6.875 -18.476562 6.875 -14.8125 C 6.875 -11.144531 7.925781 -7.90625 10.03125 -5.09375 C 12.132812 -2.28125 15.023438 -0.875 18.703125 -0.875 C 20.597656 -0.875 22.15625 -1.164062 23.375 -1.75 C 23.851562 -1.988281 24.222656 -2.285156 24.484375 -2.640625 L 24.484375 -8.234375 C 24.484375 -9.503906 24.117188 -10.4375 23.390625 -11.03125 C 22.671875 -11.625 21.347656 -11.921875 19.421875 -11.921875 C 19.265625 -11.921875 19.1875 -12.046875 19.1875 -12.296875 C 19.1875 -12.546875 19.265625 -12.671875 19.421875 -12.671875 Z M 31.890625 -12.671875 "/></g></g></g><g fill="#000000" fill-opacity="1"><g transform="translate(32.787652, 38.398645)"><g><path d="M 10.875 -0.15625 C 10.875 -0.0507812 10.816406 0 10.703125 0 L 0.265625 0 C 0.160156 0 0.109375 -0.0507812 0.109375 -0.15625 L 0.109375 -0.65625 C 0.109375 -0.757812 0.195312 -0.8125 0.375 -0.8125 C 2.238281 -0.894531 3.5 -1.890625 4.15625 -3.796875 L 12.484375 -27.9375 C 12.503906 -27.96875 12.515625 -28.003906 12.515625 -28.046875 L 12.28125 -28.71875 C 12.28125 -28.78125 12.304688 -28.8125 12.359375 -28.8125 L 16.453125 -28.8125 C 16.484375 -28.800781 16.519531 -28.789062 16.5625 -28.78125 C 16.613281 -28.769531 16.648438 -28.726562 16.671875 -28.65625 L 25.328125 -4.390625 C 25.515625 -4.023438 25.664062 -3.691406 25.78125 -3.390625 C 25.894531 -3.085938 26.03125 -2.816406 26.1875 -2.578125 C 26.507812 -2.015625 27.046875 -1.582031 27.796875 -1.28125 C 28.421875 -0.96875 28.992188 -0.8125 29.515625 -0.8125 C 29.617188 -0.8125 29.671875 -0.753906 29.671875 -0.640625 L 29.671875 -0.15625 C 29.671875 -0.0507812 29.617188 0 29.515625 0 L 17 0 C 16.894531 0 16.84375 -0.0507812 16.84375 -0.15625 L 16.84375 -0.65625 C 16.84375 -0.757812 17.09375 -0.828125 17.59375 -0.859375 C 18.101562 -0.890625 18.519531 -0.914062 18.84375 -0.9375 C 20.738281 -1.144531 21.6875 -1.785156 21.6875 -2.859375 C 21.6875 -2.941406 21.671875 -3.035156 21.640625 -3.140625 L 18.5625 -11.859375 C 18.539062 -11.878906 18.515625 -11.9375 18.484375 -12.03125 C 18.316406 -12.5 18.03125 -12.734375 17.625 -12.734375 L 10.359375 -12.734375 C 9.953125 -12.734375 9.632812 -12.507812 9.40625 -12.0625 C 9.363281 -11.96875 9.34375 -11.910156 9.34375 -11.890625 L 6.28125 -2.921875 L 6.28125 -2.734375 C 6.28125 -2.378906 6.460938 -2.0625 6.828125 -1.78125 C 7.660156 -1.132812 8.773438 -0.8125 10.171875 -0.8125 L 10.703125 -0.8125 C 10.816406 -0.8125 10.875 -0.757812 10.875 -0.65625 Z M 16.921875 -15 C 17.171875 -15 17.296875 -15.101562 17.296875 -15.3125 C 17.296875 -15.414062 17.265625 -15.535156 17.203125 -15.671875 L 14.171875 -24.0625 C 14.023438 -24.425781 13.921875 -24.609375 13.859375 -24.609375 C 13.785156 -24.609375 13.675781 -24.414062 13.53125 -24.03125 L 10.671875 -15.671875 C 10.617188 -15.535156 10.59375 -15.390625 10.59375 -15.234375 C 10.59375 -15.078125 10.691406 -15 10.890625 -15 Z M 16.921875 -15 "/></g></g></g><g fill="#000000" fill-opacity="1"><g transform="translate(59.913018, 38.398645)"><g><path d="M 1.390625 0 C 1.273438 0 1.21875 -0.0507812 1.21875 -0.15625 L 1.21875 -0.65625 C 1.21875 -0.757812 1.289062 -0.8125 1.4375 -0.8125 L 1.90625 -0.8125 C 2.65625 -0.8125 3.164062 -0.878906 3.4375 -1.015625 C 4.445312 -1.503906 4.953125 -2.851562 4.953125 -5.0625 L 4.953125 -26.3125 C 4.953125 -27.21875 4.066406 -27.757812 2.296875 -27.9375 C 1.898438 -27.976562 1.617188 -28 1.453125 -28 C 1.296875 -28 1.21875 -28.054688 1.21875 -28.171875 L 1.21875 -28.65625 C 1.21875 -28.757812 1.273438 -28.8125 1.390625 -28.8125 L 8.875 -28.8125 L 28.265625 -7.375 C 28.335938 -7.3125 28.382812 -7.257812 28.40625 -7.21875 C 28.4375 -7.1875 28.484375 -7.171875 28.546875 -7.171875 C 28.609375 -7.171875 28.640625 -7.234375 28.640625 -7.359375 L 28.640625 -21.4375 C 28.640625 -24.15625 28.410156 -25.925781 27.953125 -26.75 C 27.503906 -27.582031 26.601562 -28 25.25 -28 L 24.203125 -28 C 24.085938 -28 24.03125 -28.054688 24.03125 -28.171875 L 24.03125 -28.65625 C 24.03125 -28.757812 24.085938 -28.8125 24.203125 -28.8125 L 34.828125 -28.8125 C 34.929688 -28.8125 34.984375 -28.757812 34.984375 -28.65625 L 34.984375 -28.171875 C 34.984375 -28.054688 34.78125 -28 34.375 -28 C 33.976562 -28 33.320312 -27.765625 32.40625 -27.296875 C 31.488281 -26.835938 31.03125 -26.269531 31.03125 -25.59375 L 31.03125 -0.59375 C 31.03125 -0.289062 30.988281 -0.078125 30.90625 0.046875 C 30.820312 0.179688 30.625 0.25 30.3125 0.25 C 30.007812 0.25 29.78125 0.1875 29.625 0.0625 C 29.476562 -0.0625 29.304688 -0.238281 29.109375 -0.46875 L 8.03125 -23.828125 C 7.894531 -23.960938 7.773438 -24.03125 7.671875 -24.03125 C 7.597656 -24.03125 7.5625 -23.960938 7.5625 -23.828125 L 7.5625 -3.4375 C 7.5625 -2.195312 8.539062 -1.378906 10.5 -0.984375 C 11.050781 -0.867188 11.46875 -0.8125 11.75 -0.8125 C 12.039062 -0.8125 12.1875 -0.757812 12.1875 -0.65625 L 12.1875 -0.15625 C 12.1875 -0.0507812 12.128906 0 12.015625 0 Z M 1.390625 0 "/></g></g></g><g fill="#000000" fill-opacity="1"><g transform="translate(92.96224, 38.398645)"><g><path d="M 31.890625 -12.671875 C 32.035156 -12.671875 32.109375 -12.5625 32.109375 -12.34375 C 32.109375 -12.132812 32.035156 -11.992188 31.890625 -11.921875 C 31.515625 -11.765625 31.132812 -11.628906 30.75 -11.515625 C 30.363281 -11.410156 30.003906 -11.269531 29.671875 -11.09375 C 28.921875 -10.6875 28.546875 -10.023438 28.546875 -9.109375 L 28.546875 -2.46875 C 28.546875 -2.175781 27.828125 -1.773438 26.390625 -1.265625 C 24.953125 -0.765625 23.785156 -0.394531 22.890625 -0.15625 C 18.679688 0.875 14.921875 0.765625 11.609375 -0.484375 C 7.804688 -1.941406 5.113281 -4.550781 3.53125 -8.3125 C 2.738281 -10.195312 2.34375 -12.066406 2.34375 -13.921875 C 2.34375 -15.785156 2.53125 -17.351562 2.90625 -18.625 C 4.019531 -22.488281 6.363281 -25.460938 9.9375 -27.546875 C 12.257812 -28.910156 14.707031 -29.59375 17.28125 -29.59375 C 19.851562 -29.59375 22.582031 -29.078125 25.46875 -28.046875 C 26 -27.847656 26.296875 -27.75 26.359375 -27.75 L 26.609375 -27.75 L 27.421875 -27.953125 L 27.9375 -27.953125 C 28.09375 -27.953125 28.171875 -27.878906 28.171875 -27.734375 L 28.171875 -20.9375 C 28.171875 -20.675781 28.019531 -20.546875 27.71875 -20.546875 L 27.640625 -20.546875 C 27.378906 -20.566406 27.203125 -20.910156 27.109375 -21.578125 C 27.078125 -21.710938 27.054688 -21.816406 27.046875 -21.890625 C 25.679688 -26.148438 22.804688 -28.28125 18.421875 -28.28125 C 14.898438 -28.28125 12.09375 -26.953125 10 -24.296875 C 7.914062 -21.640625 6.875 -18.476562 6.875 -14.8125 C 6.875 -11.144531 7.925781 -7.90625 10.03125 -5.09375 C 12.132812 -2.28125 15.023438 -0.875 18.703125 -0.875 C 20.597656 -0.875 22.15625 -1.164062 23.375 -1.75 C 23.851562 -1.988281 24.222656 -2.285156 24.484375 -2.640625 L 24.484375 -8.234375 C 24.484375 -9.503906 24.117188 -10.4375 23.390625 -11.03125 C 22.671875 -11.625 21.347656 -11.921875 19.421875 -11.921875 C 19.265625 -11.921875 19.1875 -12.046875 19.1875 -12.296875 C 19.1875 -12.546875 19.265625 -12.671875 19.421875 -12.671875 Z M 31.890625 -12.671875 "/></g></g></g><g fill="#000000" fill-opacity="1"><g transform="translate(123.437649, 38.398645)"><g><path d="M 10.875 -0.15625 C 10.875 -0.0507812 10.816406 0 10.703125 0 L 0.265625 0 C 0.160156 0 0.109375 -0.0507812 0.109375 -0.15625 L 0.109375 -0.65625 C 0.109375 -0.757812 0.195312 -0.8125 0.375 -0.8125 C 2.238281 -0.894531 3.5 -1.890625 4.15625 -3.796875 L 12.484375 -27.9375 C 12.503906 -27.96875 12.515625 -28.003906 12.515625 -28.046875 L 12.28125 -28.71875 C 12.28125 -28.78125 12.304688 -28.8125 12.359375 -28.8125 L 16.453125 -28.8125 C 16.484375 -28.800781 16.519531 -28.789062 16.5625 -28.78125 C 16.613281 -28.769531 16.648438 -28.726562 16.671875 -28.65625 L 25.328125 -4.390625 C 25.515625 -4.023438 25.664062 -3.691406 25.78125 -3.390625 C 25.894531 -3.085938 26.03125 -2.816406 26.1875 -2.578125 C 26.507812 -2.015625 27.046875 -1.582031 27.796875 -1.28125 C 28.421875 -0.96875 28.992188 -0.8125 29.515625 -0.8125 C 29.617188 -0.8125 29.671875 -0.753906 29.671875 -0.640625 L 29.671875 -0.15625 C 29.671875 -0.0507812 29.617188 0 29.515625 0 L 17 0 C 16.894531 0 16.84375 -0.0507812 16.84375 -0.15625 L 16.84375 -0.65625 C 16.84375 -0.757812 17.09375 -0.828125 17.59375 -0.859375 C 18.101562 -0.890625 18.519531 -0.914062 18.84375 -0.9375 C 20.738281 -1.144531 21.6875 -1.785156 21.6875 -2.859375 C 21.6875 -2.941406 21.671875 -3.035156 21.640625 -3.140625 L 18.5625 -11.859375 C 18.539062 -11.878906 18.515625 -11.9375 18.484375 -12.03125 C 18.316406 -12.5 18.03125 -12.734375 17.625 -12.734375 L 10.359375 -12.734375 C 9.953125 -12.734375 9.632812 -12.507812 9.40625 -12.0625 C 9.363281 -11.96875 9.34375 -11.910156 9.34375 -11.890625 L 6.28125 -2.921875 L 6.28125 -2.734375 C 6.28125 -2.378906 6.460938 -2.0625 6.828125 -1.78125 C 7.660156 -1.132812 8.773438 -0.8125 10.171875 -0.8125 L 10.703125 -0.8125 C 10.816406 -0.8125 10.875 -0.757812 10.875 -0.65625 Z M 16.921875 -15 C 17.171875 -15 17.296875 -15.101562 17.296875 -15.3125 C 17.296875 -15.414062 17.265625 -15.535156 17.203125 -15.671875 L 14.171875 -24.0625 C 14.023438 -24.425781 13.921875 -24.609375 13.859375 -24.609375 C 13.785156 -24.609375 13.675781 -24.414062 13.53125 -24.03125 L 10.671875 -15.671875 C 10.617188 -15.535156 10.59375 -15.390625 10.59375 -15.234375 C 10.59375 -15.078125 10.691406 -15 10.890625 -15 Z M 16.921875 -15 "/></g></g></g><g fill="#000000" fill-opacity="1"><g transform="translate(150.563015, 38.398645)"><g><path d="M 0.921875 -28.71875 C 0.921875 -28.820312 0.972656 -28.875 1.078125 -28.875 L 1.53125 -28.875 L 8.09375 -29.03125 C 8.882812 -29.050781 9.742188 -29.0625 10.671875 -29.0625 L 13.21875 -29.0625 C 15.59375 -29.0625 17.375 -28.972656 18.5625 -28.796875 C 19.757812 -28.617188 20.929688 -28.410156 22.078125 -28.171875 C 23.234375 -27.929688 24.460938 -27.390625 25.765625 -26.546875 C 27.066406 -25.703125 28.191406 -24.679688 29.140625 -23.484375 C 31.160156 -20.921875 32.171875 -18.15625 32.171875 -15.1875 C 32.171875 -12.21875 31.394531 -9.550781 29.84375 -7.1875 C 27.601562 -3.769531 24.363281 -1.535156 20.125 -0.484375 C 18.78125 -0.160156 17.398438 0 15.984375 0 L 1.078125 0 C 0.972656 0 0.921875 -0.0507812 0.921875 -0.15625 L 0.921875 -0.734375 C 0.921875 -0.847656 0.972656 -0.90625 1.078125 -0.90625 L 1.53125 -0.90625 C 4.007812 -0.90625 5.25 -1.691406 5.25 -3.265625 L 5.25 -25.671875 C 5.25 -26.429688 4.957031 -27.003906 4.375 -27.390625 C 3.789062 -27.785156 3.128906 -27.984375 2.390625 -27.984375 L 1.078125 -27.984375 C 0.972656 -27.984375 0.921875 -28.035156 0.921875 -28.140625 Z M 9.75 -28.109375 C 9.40625 -28.109375 9.234375 -27.921875 9.234375 -27.546875 L 9.234375 -2.5625 C 9.234375 -1.550781 10.179688 -1.023438 12.078125 -0.984375 C 12.640625 -0.960938 13.226562 -0.953125 13.84375 -0.953125 C 18.1875 -0.953125 21.597656 -2.171875 24.078125 -4.609375 C 26.566406 -7.054688 27.8125 -10.304688 27.8125 -14.359375 C 27.8125 -18.410156 26.664062 -21.710938 24.375 -24.265625 C 22.082031 -26.828125 19.0625 -28.109375 15.3125 -28.109375 Z M 9.75 -28.109375 "/></g></g></g><g fill="#000000" fill-opacity="1"><g transform="translate(181.916789, 38.398645)"><g><path d="M 0.140625 -0.15625 L 0.140625 -0.734375 C 0.140625 -0.847656 0.195312 -0.90625 0.3125 -0.90625 L 0.75 -0.90625 C 1.320312 -0.9375 1.90625 -0.957031 2.5 -0.96875 C 3.101562 -0.976562 3.65625 -1.050781 4.15625 -1.1875 C 5.269531 -1.507812 5.828125 -2.328125 5.828125 -3.640625 L 5.828125 -25.1875 C 5.828125 -26.53125 5.03125 -27.382812 3.4375 -27.75 C 2.988281 -27.851562 2.53125 -27.9375 2.0625 -28 L 1.640625 -28 C 1.523438 -28 1.46875 -28.054688 1.46875 -28.171875 L 1.46875 -28.65625 C 1.46875 -28.757812 1.523438 -28.8125 1.640625 -28.8125 L 21.078125 -28.8125 C 21.316406 -28.8125 21.488281 -28.765625 21.59375 -28.671875 C 21.707031 -28.585938 21.78125 -28.398438 21.8125 -28.109375 L 22.171875 -22.171875 C 22.171875 -22.035156 22.066406 -21.96875 21.859375 -21.96875 C 21.660156 -21.96875 21.515625 -22.03125 21.421875 -22.15625 C 21.335938 -22.289062 21.226562 -22.785156 21.09375 -23.640625 C 20.96875 -24.503906 20.734375 -25.222656 20.390625 -25.796875 C 20.054688 -26.367188 19.457031 -26.726562 18.59375 -26.875 L 10.078125 -26.875 C 9.898438 -26.875 9.8125 -26.785156 9.8125 -26.609375 L 9.8125 -16.046875 C 9.8125 -15.910156 9.878906 -15.84375 10.015625 -15.84375 L 17.09375 -15.84375 C 18.914062 -15.84375 19.828125 -16.90625 19.828125 -19.03125 C 19.828125 -19.132812 19.878906 -19.1875 19.984375 -19.1875 L 20.484375 -19.1875 C 20.585938 -19.1875 20.640625 -19.132812 20.640625 -19.03125 L 20.640625 -10.28125 C 20.640625 -10.175781 20.585938 -10.125 20.484375 -10.125 L 19.984375 -10.125 C 19.878906 -10.125 19.828125 -10.175781 19.828125 -10.28125 C 19.828125 -12.300781 19.238281 -13.46875 18.0625 -13.78125 C 17.738281 -13.863281 17.394531 -13.90625 17.03125 -13.90625 L 10.015625 -13.90625 C 9.878906 -13.90625 9.8125 -13.832031 9.8125 -13.6875 L 9.8125 -3.734375 C 9.8125 -2.710938 10.28125 -2.132812 11.21875 -2 C 11.488281 -1.957031 11.773438 -1.9375 12.078125 -1.9375 L 18.890625 -1.9375 C 20.285156 -1.9375 21.375 -2.554688 22.15625 -3.796875 C 22.71875 -4.679688 23.054688 -5.695312 23.171875 -6.84375 C 23.210938 -7.226562 23.421875 -7.421875 23.796875 -7.421875 C 23.953125 -7.421875 24.03125 -7.332031 24.03125 -7.15625 L 23.359375 -0.28125 C 23.273438 -0.09375 23.179688 0 23.078125 0 L 0.3125 0 C 0.195312 0 0.140625 -0.0507812 0.140625 -0.15625 Z M 0.140625 -0.15625 "/></g></g></g><g fill="#000000" fill-opacity="1"><g transform="translate(205.099726, 38.398645)"><g><path d="M 30.65625 -28.171875 C 30.65625 -28.054688 30.601562 -28 30.5 -28 L 29.734375 -28 C 28.003906 -27.65625 26.734375 -26.238281 25.921875 -23.75 C 25.703125 -23.09375 25.476562 -22.457031 25.25 -21.84375 L 17.203125 -0.15625 C 17.085938 0.175781 16.941406 0.375 16.765625 0.4375 C 16.585938 0.507812 16.34375 0.546875 16.03125 0.546875 L 15.0625 0.546875 C 14.738281 0.546875 14.53125 0.398438 14.4375 0.109375 L 3.65625 -26 C 3.21875 -27.070312 2.140625 -27.734375 0.421875 -27.984375 C 0.328125 -27.992188 0.25 -28 0.1875 -28 C 0.132812 -28 0.109375 -28.054688 0.109375 -28.171875 L 0.109375 -28.65625 C 0.109375 -28.757812 0.160156 -28.8125 0.265625 -28.8125 L 12.328125 -28.8125 C 12.429688 -28.8125 12.484375 -28.757812 12.484375 -28.65625 L 12.484375 -28.171875 C 12.484375 -28.054688 12.429688 -28 12.328125 -28 L 12.015625 -28 C 11.671875 -27.945312 11.273438 -27.894531 10.828125 -27.84375 C 9.085938 -27.625 8.21875 -26.925781 8.21875 -25.75 C 8.21875 -25.382812 8.3125 -24.988281 8.5 -24.5625 L 16.25 -5.71875 C 16.382812 -5.445312 16.523438 -5.457031 16.671875 -5.75 L 23.796875 -25 C 23.890625 -25.269531 23.9375 -25.59375 23.9375 -25.96875 C 23.9375 -26.34375 23.78125 -26.703125 23.46875 -27.046875 C 23.15625 -27.398438 22.835938 -27.601562 22.515625 -27.65625 C 22.191406 -27.707031 21.9375 -27.742188 21.75 -27.765625 C 21.570312 -27.796875 21.296875 -27.84375 20.921875 -27.90625 C 20.554688 -27.96875 20.3125 -28 20.1875 -28 C 20.070312 -28 20.015625 -28.054688 20.015625 -28.171875 L 20.015625 -28.65625 C 20.015625 -28.757812 20.066406 -28.8125 20.171875 -28.8125 L 30.5 -28.8125 C 30.601562 -28.8125 30.65625 -28.757812 30.65625 -28.65625 Z M 30.65625 -28.171875 "/></g></g></g><g fill="#000000" fill-opacity="1"><g transform="translate(233.205593, 38.398645)"><g><path d="M 5.15625 -25.546875 C 5.15625 -27.179688 4.210938 -28 2.328125 -28 C 2.023438 -28 1.875 -28.054688 1.875 -28.171875 L 1.875 -28.65625 C 1.875 -28.757812 1.929688 -28.8125 2.046875 -28.8125 L 12.28125 -28.8125 C 12.394531 -28.8125 12.453125 -28.757812 12.453125 -28.65625 L 12.453125 -28.171875 C 12.453125 -28.054688 12.148438 -28 11.546875 -28 C 10.953125 -28 10.398438 -27.804688 9.890625 -27.421875 C 9.390625 -27.046875 9.140625 -26.265625 9.140625 -25.078125 L 9.140625 -3.265625 C 9.140625 -1.628906 10.085938 -0.8125 11.984375 -0.8125 C 12.265625 -0.8125 12.40625 -0.757812 12.40625 -0.65625 L 12.40625 -0.15625 C 12.40625 -0.0507812 12.351562 0 12.25 0 L 2 0 C 1.894531 0 1.84375 -0.0507812 1.84375 -0.15625 L 1.84375 -0.65625 C 1.84375 -0.757812 2.140625 -0.8125 2.734375 -0.8125 C 3.335938 -0.8125 3.890625 -1.003906 4.390625 -1.390625 C 4.898438 -1.773438 5.15625 -2.554688 5.15625 -3.734375 Z M 5.15625 -25.546875 "/></g></g></g></g></g><g fill="#000000" fill-opacity="1"><g transform="translate(47.296876, 261.577255)"><g><path d="M 110.125 2.625 C 90.71875 2.625 73.757812 -1.21875 59.25 -8.90625 C 44.75 -16.601562 33.519531 -27.398438 25.5625 -41.296875 C 17.613281 -55.191406 13.640625 -71.578125 13.640625 -90.453125 C 13.640625 -103.566406 15.953125 -115.890625 20.578125 -127.421875 C 25.210938 -138.960938 31.769531 -149.054688 40.25 -157.703125 C 48.726562 -166.359375 58.820312 -173.128906 70.53125 -178.015625 C 82.238281 -182.910156 95.082031 -185.359375 109.0625 -185.359375 C 116.9375 -185.359375 124.671875 -184.703125 132.265625 -183.390625 C 139.867188 -182.085938 146.816406 -180.382812 153.109375 -178.28125 C 159.410156 -176.1875 164.21875 -174.003906 167.53125 -171.734375 L 168.59375 -140.796875 L 165.96875 -140.265625 C 162.820312 -147.785156 158.101562 -154.601562 151.8125 -160.71875 C 145.519531 -166.832031 138.132812 -171.679688 129.65625 -175.265625 C 121.175781 -178.847656 111.78125 -180.640625 101.46875 -180.640625 C 88.882812 -180.640625 77.609375 -177.800781 67.640625 -172.125 C 57.679688 -166.445312 49.773438 -158.097656 43.921875 -147.078125 C 38.066406 -136.066406 35.050781 -122.523438 34.875 -106.453125 C 34.695312 -94.035156 36.441406 -81.707031 40.109375 -69.46875 C 43.785156 -57.238281 49.25 -46.054688 56.5 -35.921875 C 63.75 -25.785156 72.53125 -17.703125 82.84375 -11.671875 C 93.15625 -5.640625 104.957031 -2.625 118.25 -2.625 C 128.03125 -2.625 136.851562 -4.9375 144.71875 -9.5625 C 152.59375 -14.195312 158.1875 -19.75 161.5 -26.21875 L 161.25 -52.96875 C 161.25 -61.175781 160.414062 -67.113281 158.75 -70.78125 C 157.09375 -74.457031 153.46875 -76.992188 147.875 -78.390625 L 147.875 -81.546875 L 182.21875 -81.546875 L 182.21875 -32.25 C 177.144531 -25.257812 170.628906 -19.140625 162.671875 -13.890625 C 154.722656 -8.648438 146.203125 -4.585938 137.109375 -1.703125 C 128.023438 1.179688 119.03125 2.625 110.125 2.625 Z M 110.125 2.625 "/></g></g></g></svg>